<svg version="1.1" xmlns="http://www.w3.org/2000/svg" viewBox="0 0 466.1306004178916 215.47919017043523" width="1398.3918012536749" height="646.4375705113057">
  <!-- svg-source:excalidraw -->
  
  <defs>
    <style>
      @font-face {
        font-family: "Virgil";
        src: url("https://excalidraw.com/Virgil.woff2");
      }
      @font-face {
        font-family: "Cascadia";
        src: url("https://excalidraw.com/Cascadia.woff2");
      }
    </style>
  </defs>
  <g transform="translate(21.53205062290067 80.61730051685163) rotate(0 216 23)"><text x="0" y="32" font-family="Virgil, Segoe UI Emoji" font-size="36px" fill="#000000" text-anchor="start" style="white-space: pre;" direction="ltr">2 23 11 59 350 123 22</text></g><g stroke-linecap="round" transform="translate(19.380307193165095 82.2161865500832) rotate(0 14.227808519884718 20.480833725807997)"><path d="M1.94 -1.47 C4.49 1.5, 11.35 0.2, 30.03 -0.02 M-0.55 -0.47 C9.74 -0.04, 20.1 -0.08, 27.6 -0.6 M26.51 -1.76 C28.85 13.62, 26.95 25.25, 26.79 39.96 M29.44 0.64 C27.76 11.11, 28.53 20.89, 29.18 40.24 M30.21 39.67 C18.38 41.47, 5.86 40.09, 0.49 40.53 M28.54 41.46 C17.27 41.34, 6.47 41.63, -0.6 41.45 M-0.65 42.19 C-1.8 27.42, -0.12 11.44, 1.79 -0.93 M-0.6 41.83 C-0.77 24.75, -0.06 10.59, -0.22 -0.16" stroke="#000000" stroke-width="1" fill="none"></path></g><g transform="translate(10 10) rotate(0 26 12.5)"><text x="0" y="18" font-family="Virgil, Segoe UI Emoji" font-size="20px" fill="#000000" text-anchor="start" style="white-space: pre;" direction="ltr">genre</text></g><g transform="translate(53.73512824782165 180.47919017043523) rotate(0 28.5 12.5)"><text x="0" y="18" font-family="Virgil, Segoe UI Emoji" font-size="20px" fill="#000000" text-anchor="start" style="white-space: pre;" direction="ltr">année</text></g><g transform="translate(128.49355178257883 11.383861434179607) rotate(0 20.5 12.5)"><text x="0" y="18" font-family="Virgil, Segoe UI Emoji" font-size="20px" fill="#000000" text-anchor="start" style="white-space: pre;" direction="ltr">mois</text></g><g transform="translate(238.4303840346049 17.877087279351827) rotate(0 40 12.5)"><text x="0" y="18" font-family="Virgil, Segoe UI Emoji" font-size="20px" fill="#000000" text-anchor="start" style="white-space: pre;" direction="ltr">commune</text></g><g transform="translate(406.15369604092484 16.607722201833212) rotate(0 15 12.5)"><text x="0" y="18" font-family="Virgil, Segoe UI Emoji" font-size="20px" fill="#000000" text-anchor="start" style="white-space: pre;" direction="ltr">clé</text></g><g transform="translate(147.62572397369956 178.63160628694754) rotate(0 62.00000000000006 12.5)"><text x="0" y="18" font-family="Virgil, Segoe UI Emoji" font-size="20px" fill="#000000" text-anchor="start" style="white-space: pre;" direction="ltr">département</text></g><g transform="translate(330.16660400964975 175.10183096695164) rotate(0 24.5 12.5)"><text x="0" y="18" font-family="Virgil, Segoe UI Emoji" font-size="20px" fill="#000000" text-anchor="start" style="white-space: pre;" direction="ltr">série</text></g><g stroke-linecap="round"><g transform="translate(28.195125850050772 41.56406735673113) rotate(10.777474548668918 5.248776925336074 20.92901411161813)"><path d="M-0.33 1.03 C1.54 7.53, 8.84 33.31, 10.83 40.04 M1.69 0.53 C3.43 7.7, 8.17 34.82, 9.74 41.33" stroke="#000000" stroke-width="1" fill="none"></path></g><g transform="translate(28.195125850050772 41.56406735673113) rotate(10.777474548668918 5.248776925336074 20.92901411161813)"><path d="M0.48 22.97 C1.01 29.06, 6.23 34.18, 7.91 42.51 M-0.81 23.97 C2.52 29.62, 5.29 34.68, 10.26 40.66" stroke="#000000" stroke-width="1" fill="none"></path></g><g transform="translate(28.195125850050772 41.56406735673113) rotate(10.777474548668918 5.248776925336074 20.92901411161813)"><path d="M14.56 20.1 C11.4 26.91, 12.9 32.79, 7.91 42.51 M13.27 21.1 C12.55 27.5, 11.26 33.38, 10.26 40.66" stroke="#000000" stroke-width="1" fill="none"></path></g></g><g stroke-linecap="round" transform="translate(66.17267893235964 81.51012030086076) rotate(0 24.29790650074392 20.337604656400572)"><path d="M0.88 1.51 C20.04 -1.63, 38.71 -0.05, 48.34 -1.12 M0.99 0.23 C17.58 0.21, 32.71 -1.08, 48.33 0.64 M49.81 -1.72 C50.15 13.98, 47.8 25.43, 47.57 41.44 M48.76 -0.35 C48.64 15.79, 48.24 30.52, 47.87 40.23 M49.1 42.33 C35.63 42.01, 17.91 41.93, 1.85 40.65 M48.4 41.6 C32.92 40.96, 15.65 40.41, -0.3 39.81 M-0.54 41.38 C-1.08 26.92, -2.16 17.19, 1.04 0.59 M0.5 40.38 C-0.49 28.05, -0.84 16.54, -0.28 0.7" stroke="#000000" stroke-width="1" fill="none"></path></g><g stroke-linecap="round"><g transform="translate(71.12062854517796 172.62597206843088) rotate(0 3.1896923304468032 -23.06414355820607)"><path d="M-0.67 -0.99 C0.41 -8.81, 5.83 -39.62, 7.05 -47.23 M1.18 1.1 C2.06 -6.56, 5.36 -38.38, 6.12 -46.14" stroke="#000000" stroke-width="1" fill="none"></path></g><g transform="translate(71.12062854517796 172.62597206843088) rotate(0 3.1896923304468032 -23.06414355820607)"><path d="M10.22 -23.34 C8.53 -31.86, 7.54 -37.22, 5.68 -45.69 M11.68 -22.93 C10.92 -28.76, 9.62 -34.25, 6.78 -45.65" stroke="#000000" stroke-width="1" fill="none"></path></g><g transform="translate(71.12062854517796 172.62597206843088) rotate(0 3.1896923304468032 -23.06414355820607)"><path d="M-5.74 -24.96 C-1.92 -32.83, 2.61 -37.63, 5.68 -45.69 M-4.28 -24.55 C-1.49 -29.93, 0.76 -35.05, 6.78 -45.65" stroke="#000000" stroke-width="1" fill="none"></path></g></g><g stroke-linecap="round" transform="translate(123.37444205585405 81.43311221427962) rotate(0 20.153023062238447 19.67992347756001)"><path d="M1.29 -0.27 C10.15 -1.43, 16.85 0.11, 38.82 -0.77 M-0.18 0.49 C9.45 -0.95, 19.42 -0.97, 40.24 0.46 M38.35 -0.98 C42.12 7.55, 39.1 17.12, 42.16 39.02 M40.53 0.06 C41.56 13.53, 41.23 27.95, 39.7 38.4 M39.41 37.38 C31.15 39.27, 21.89 38.77, 1.77 39.87 M40.83 38.44 C30.03 38.35, 17.03 39.4, -0.86 40 M0.82 38.73 C0.19 26.12, 1.59 16.19, -0.18 -1.25 M-0.03 39.43 C0.9 24.3, 0.15 8.06, -0.54 -0.31" stroke="#000000" stroke-width="1" fill="none"></path></g><g stroke-linecap="round" transform="translate(170.36425134662784 80.61455805778905) rotate(0 24.207319264734167 19.67992347756001)"><path d="M0.4 0.56 C13.01 0.87, 24.59 1.77, 48.06 -0.49 M-0.5 0.32 C10.69 0.4, 20.81 -0.42, 49.37 0.99 M49.38 -0.42 C49.74 11.1, 46.84 20.23, 47.6 38.29 M48.27 -0.54 C47.34 13.22, 49.08 27.37, 49.34 39.9 M47.42 39.79 C31.82 40.78, 11.35 41.22, 0.92 38.25 M47.84 39.6 C33.15 38.48, 18.15 38.49, -0.85 39.27 M0.97 39.95 C0.77 26.04, 0.03 12.51, -0.16 1.84 M-0.97 38.98 C-0.39 30.34, -0.22 21.65, 0.85 -0.36" stroke="#000000" stroke-width="1" fill="none"></path></g><g stroke-linecap="round"><g transform="translate(152.43930548382366 45.32683902337635) rotate(0 -1.5548401815445345 17.756344791950255)"><path d="M-1.16 0.6 C-1.69 6.69, -2.42 29.86, -2.59 35.64 M0.43 -0.13 C-0.31 5.68, -3 27.67, -3.54 33.8" stroke="#000000" stroke-width="1" fill="none"></path></g><g transform="translate(152.43930548382366 45.32683902337635) rotate(0 -1.5548401815445345 17.756344791950255)"><path d="M-6.89 16.72 C-5.64 23.27, -4.74 27.73, -3.69 33.72 M-7.98 17.28 C-6.68 23.48, -3.87 29.02, -3.76 33.59" stroke="#000000" stroke-width="1" fill="none"></path></g><g transform="translate(152.43930548382366 45.32683902337635) rotate(0 -1.5548401815445345 17.756344791950255)"><path d="M5.09 17.99 C2.17 23.99, -1.09 28, -3.69 33.72 M3.99 18.55 C1 24.22, -0.49 29.3, -3.76 33.59" stroke="#000000" stroke-width="1" fill="none"></path></g></g><g stroke-linecap="round"><g transform="translate(198.43335669570615 170.42708927363788) rotate(0 2.181289052337547 -23.57468981492741)"><path d="M-0.32 -0.59 C0.47 -8.38, 3.77 -39.35, 4.68 -47.35 M1.71 1.72 C2.36 -6.33, 3.31 -40.69, 3.82 -48.87" stroke="#000000" stroke-width="1" fill="none"></path></g><g transform="translate(198.43335669570615 170.42708927363788) rotate(0 2.181289052337547 -23.57468981492741)"><path d="M10.19 -25.39 C11.04 -31.41, 6.76 -40.34, 4.1 -50.68 M11.51 -25.55 C8.93 -33.01, 5.69 -40.32, 3.73 -48.56" stroke="#000000" stroke-width="1" fill="none"></path></g><g transform="translate(198.43335669570615 170.42708927363788) rotate(0 2.181289052337547 -23.57468981492741)"><path d="M-6.46 -26.1 C-0.71 -31.87, -0.1 -40.58, 4.1 -50.68 M-5.14 -26.26 C-2.22 -33.46, 0.03 -40.53, 3.73 -48.56" stroke="#000000" stroke-width="1" fill="none"></path></g></g><g stroke-linecap="round" transform="translate(229.16092090296058 78.9104074549582) rotate(0 39.70955345181159 20.395730793516577)"><path d="M1.78 0.55 C29.61 -0.17, 61.14 0.45, 78.8 0.1 M-0.86 0.71 C27.71 -0.59, 56.02 0.16, 79.49 0.22 M80.48 -1.9 C79.28 14.5, 79.15 33.43, 80.85 39.95 M79.68 0.38 C78.27 10.86, 78.37 20.5, 78.83 40.94 M80.01 42.76 C62.27 42.07, 41.08 39.87, 1.74 39.75 M78.54 41.67 C60.06 40.85, 41.68 40.4, -0.24 41.14 M1.91 42.23 C-1.17 24.68, -0.8 12, -0.22 1.79 M-0.61 41.03 C-0.37 32.77, 0.2 24.21, -0.09 -0.44" stroke="#000000" stroke-width="1" fill="none"></path></g><g stroke-linecap="round"><g transform="translate(276.6721419286937 52.11684170187618) rotate(0 -0.2691716531342081 10.565619554411114)"><path d="M-0.37 0.44 C-0.93 3.67, -1.91 16.63, -2.18 19.93 M1.64 -0.38 C1.35 3.03, 0.85 18.44, 0.06 21.51" stroke="#000000" stroke-width="1" fill="none"></path></g><g transform="translate(276.6721419286937 52.11684170187618) rotate(0 -0.2691716531342081 10.565619554411114)"><path d="M-1.87 11.1 C-1.21 15.13, -0.05 19.34, -0.49 22.21 M-1.79 11.45 C-1.27 15.29, -0.81 19.48, -0.32 21.33" stroke="#000000" stroke-width="1" fill="none"></path></g><g transform="translate(276.6721419286937 52.11684170187618) rotate(0 -0.2691716531342081 10.565619554411114)"><path d="M4.88 11.88 C2.85 15.58, 1.32 19.48, -0.49 22.21 M4.97 12.23 C2.88 15.74, 0.73 19.63, -0.32 21.33" stroke="#000000" stroke-width="1" fill="none"></path></g></g><g stroke-linecap="round" transform="translate(320.8288346727013 79.23918721028576) rotate(0 32.62076259692981 20.10311520039909)"><path d="M1.72 -1.34 C19.52 -1.24, 39.89 0.58, 65.73 -1.03 M-0.58 0.27 C19.65 1.44, 36.82 0.88, 64.75 -0.18 M63.84 0.17 C66.83 13.55, 66.22 29, 64.99 41.29 M65.73 0.26 C65.53 8.66, 65.61 19.19, 64.88 40.16 M66.35 41.94 C47.01 38.86, 29.87 38.33, 0.69 39.74 M65.88 41.03 C47.67 39.83, 29.34 40.12, -0.16 40.41 M1.67 41.58 C0.27 29.04, -2.01 13.83, 1.23 -1.22 M-0.55 40.24 C0.43 28.03, 0.05 14.55, 0.52 -0.9" stroke="#000000" stroke-width="1" fill="none"></path></g><g stroke-linecap="round"><g transform="translate(352.9126032092893 168.59593350482191) rotate(0 -0.5099684732430205 -20.6876540331956)"><path d="M-0.91 0.07 C-1.13 -6.53, -1.12 -33.07, -1.25 -39.68 M0.81 -0.93 C0.49 -7.88, -1.31 -34.69, -1.83 -41.45" stroke="#000000" stroke-width="1" fill="none"></path></g><g transform="translate(352.9126032092893 168.59593350482191) rotate(0 -0.5099684732430205 -20.6876540331956)"><path d="M6.53 -21.86 C5.01 -28.29, 2.7 -34.54, -1.09 -41.44 M5.73 -22.44 C3.74 -27.91, 1.48 -33.87, -2.07 -42.05" stroke="#000000" stroke-width="1" fill="none"></path></g><g transform="translate(352.9126032092893 168.59593350482191) rotate(0 -0.5099684732430205 -20.6876540331956)"><path d="M-7.25 -20.88 C-4.57 -27.5, -2.67 -34.06, -1.09 -41.44 M-8.05 -21.46 C-5.98 -27.26, -4.19 -33.5, -2.07 -42.05" stroke="#000000" stroke-width="1" fill="none"></path></g></g><g stroke-linecap="round" transform="translate(397.2202858240205 80.01022560045817) rotate(0 29.455157296935568 19.82531966484646)"><path d="M-1.81 1.21 C20.28 0.77, 38.75 0.26, 60.26 -0.55 M-0.76 -0.64 C18.91 -0.08, 38.25 0.94, 58.99 0.92 M60.3 -0.88 C60.08 11.4, 57.36 20.6, 58.74 38.98 M59.83 0.24 C59.4 8.67, 58.79 15.71, 58.12 40.09 M60.25 39.07 C35.85 37.83, 14.9 40.05, -1.8 38.25 M59.34 40.57 C45.47 39.68, 31.47 38.79, -0.29 39.98 M0.99 38.69 C-1.45 29.48, -1.19 22.06, 0.66 1.46 M-0.07 39.95 C-1.01 27.59, -0.06 16.93, 0.28 -0.56" stroke="#000000" stroke-width="1" fill="none"></path></g><g stroke-linecap="round"><g transform="translate(425.4197916205362 53.00718741317701) rotate(0 1.2103410187934287 10.431198090349653)"><path d="M1.15 -0.29 C1.48 3.04, 1.91 17.38, 2.12 21 M0.3 -1.49 C0.41 2.54, 0.69 18.31, 0.89 22.35" stroke="#000000" stroke-width="1" fill="none"></path></g><g transform="translate(425.4197916205362 53.00718741317701) rotate(0 1.2103410187934287 10.431198090349653)"><path d="M-3.37 11.88 C-2.09 15.21, -0.47 18.35, 0.09 21.76 M-3.24 12.12 C-1.39 16.23, -0.23 20.45, 1.4 22.18" stroke="#000000" stroke-width="1" fill="none"></path></g><g transform="translate(425.4197916205362 53.00718741317701) rotate(0 1.2103410187934287 10.431198090349653)"><path d="M3.99 11.65 C2.96 15.13, 2.27 18.34, 0.09 21.76 M4.12 11.89 C3.02 16.02, 1.25 20.33, 1.4 22.18" stroke="#000000" stroke-width="1" fill="none"></path></g></g></svg>